<svg xmlns="http://www.w3.org/2000/svg" viewBox="0 0 512 512">
  <defs>
    <linearGradient id="grad" x1="0%" y1="0%" x2="100%" y2="100%">
      <stop offset="0%" stop-color="#a855f7" />
      <stop offset="100%" stop-color="#7e22ce" />
    </linearGradient>
  </defs>
  <!-- Fondo redondeado estilo App Icon moderno -->
  <rect width="512" height="512" rx="140" fill="url(#grad)" />
  <!-- Estructura del local -->
  <path d="M120 220h272v160c0 22-18 40-40 40H160c-22 0-40-18-40-40V220z" fill="#ffffff" />
  <!-- Toldo base -->
  <path d="M96 170l32-50h256l32 50v50H96v-50z" fill="#f3e8ff" />
  <!-- Caídas del toldo (ondas) -->
  <path d="M136 170c0 15-12 28-28 28s-28-13-28-28 12-28 28-28 28 13 28 28zm80 0c0 15-12 28-28 28s-28-13-28-28 12-28 28-28 28 13 28 28zm80 0c0 15-12 28-28 28s-28-13-28-28 12-28 28-28 28 13 28 28zm80 0c0 15-12 28-28 28s-28-13-28-28 12-28 28-28 28 13 28 28z" fill="#ffffff" />
  <!-- Puerta de la tienda -->
  <path d="M216 420V310c0-11 9-20 20-20h40c11 0 20 9 20 20v110h-80z" fill="#7e22ce" />
</svg>